# xmcd
#
# Track frame offsets:
# 150
# 20781
# 36582
# 57386
# 75320
# 92738
# 112266
# 134481
# 152832
#
# Disc length: 2232 seconds
#
#
# Revision: 0
# Processed by: cddbd v1.5PL3 Copyright (c) Steve Scherf et al.
# Submitted via: FreeRIP 2.53 
#
DISCID=7c08b609
DTITLE=Sugarland - Sugar in the Raw
DYEAR=2003
DGENRE=Acoustic
TTITLE0=Sugarland
TTITLE1=Fly Away
TTITLE2=Babygirl
TTITLE3=It's not Goodbye
TTITLE4=Gotta Be Something More
TTITLE5=Small Town Jericho
TTITLE6=Stand Back Up
TTITLE7=Tumbleweed
TTITLE8=50 Cent Lovin
EXTD=
EXTT0=
EXTT1=
EXTT2=
EXTT3=
EXTT4=
EXTT5=
EXTT6=
EXTT7=
EXTT8=
PLAYORDER=
